<svg xmlns="http://www.w3.org/2000/svg" viewBox="0 0 99.62 99.62"><defs><style>.cls-1{fill:#d41367;}.cls-2{fill:#fff;}</style></defs><g id="Layer_2" data-name="Layer 2"><g id="Layer_1-2" data-name="Layer 1"><rect class="cls-1" width="99.62" height="99.62" rx="14.69"/><path class="cls-2" d="M46.49,80.62c0,3-1.6,4.46-4.36,4.46-3.11,0-4.52-1.94-4.6-4.81h2.76c.06,1.46.69,2.2,1.84,2.2s1.57-.72,1.57-2V70.81h2.79Z"/><path class="cls-2" d="M61.47,84.93h-3L57.3,81.81H51.67L50.5,84.93h-3L53,70.81h3ZM54.21,75l-1.67,4.42h3.87L54.74,75l-.27-.79Z"/><path class="cls-2" d="M67.93,84.93H65.3L59.78,70.81h3l3.57,9.32.3,1,.31-1,3.57-9.32h3Z"/><path class="cls-2" d="M85.74,84.93h-3l-1.17-3.12H75.93l-1.17,3.12h-3l5.46-14.12h3ZM78.47,75,76.8,79.39h3.87L79,75l-.26-.79Z"/><polygon class="cls-2" points="31.89 37.3 12.77 37.3 31.89 9.75 31.89 37.3"/><polygon class="cls-2" points="31.89 37.3 31.89 64.84 51.01 37.3 31.89 37.3"/></g></g></svg>